<?xml version="1.0" encoding="UTF-8" standalone="no"?>
<svg
   xmlns:dc="http://purl.org/dc/elements/1.1/"
   xmlns:cc="http://creativecommons.org/ns#"
   xmlns:rdf="http://www.w3.org/1999/02/22-rdf-syntax-ns#"
   xmlns:svg="http://www.w3.org/2000/svg"
   xmlns="http://www.w3.org/2000/svg"
   xmlns:sodipodi="http://sodipodi.sourceforge.net/DTD/sodipodi-0.dtd"
   xmlns:inkscape="http://www.inkscape.org/namespaces/inkscape"
   id="Capa_1"
   enable-background="new 0 0 512 512"
   height="512"
   viewBox="0 0 512 512"
   width="512"
   version="1.1"
   sodipodi:docname="coding.svg"
   inkscape:version="1.0.2 (e86c870879, 2021-01-15)">
  <metadata
     id="metadata82">
    <rdf:RDF>
      <cc:Work
         rdf:about="">
        <dc:format>image/svg+xml</dc:format>
        <dc:type
           rdf:resource="http://purl.org/dc/dcmitype/StillImage" />
      </cc:Work>
    </rdf:RDF>
  </metadata>
  <defs
     id="defs80" />
  <sodipodi:namedview
     pagecolor="#ffffff"
     bordercolor="#666666"
     borderopacity="1"
     objecttolerance="10"
     gridtolerance="10"
     guidetolerance="10"
     inkscape:pageopacity="0"
     inkscape:pageshadow="2"
     inkscape:window-width="1297"
     inkscape:window-height="704"
     id="namedview78"
     showgrid="false"
     inkscape:zoom="0.63867188"
     inkscape:cx="256"
     inkscape:cy="448.65332"
     inkscape:window-x="69"
     inkscape:window-y="27"
     inkscape:window-maximized="1"
     inkscape:current-layer="Capa_1"
     inkscape:document-rotation="0" />
  <g
     id="g75"
     style="fill:#ffffff;fill-opacity:1">
    <path
       d="m196 331c-8.271 0-15-6.729-15-15v-30c0-11.517-4.354-22.032-11.495-30 7.142-7.968 11.495-18.483 11.495-30v-30c0-8.271 6.729-15 15-15 8.284 0 15-6.716 15-15s-6.716-15-15-15c-24.813 0-45 20.187-45 45v30c0 8.271-6.729 15-15 15-8.284 0-15 6.716-15 15s6.716 15 15 15c8.271 0 15 6.729 15 15v30c0 24.813 20.187 45 45 45 8.284 0 15-6.716 15-15s-6.716-15-15-15z"
       id="path65"
       style="fill:#ffffff;fill-opacity:1" />
    <path
       d="m376 241c-8.271 0-15-6.729-15-15v-30c0-24.813-20.187-45-45-45-8.284 0-15 6.716-15 15s6.716 15 15 15c8.271 0 15 6.729 15 15v30c0 11.517 4.354 22.032 11.495 30-7.141 7.968-11.495 18.483-11.495 30v30c0 8.271-6.729 15-15 15-8.284 0-15 6.716-15 15s6.716 15 15 15c24.813 0 45-20.187 45-45v-30c0-8.271 6.729-15 15-15 8.284 0 15-6.716 15-15s-6.716-15-15-15z"
       id="path67"
       style="fill:#ffffff;fill-opacity:1" />
    <circle
       cx="226"
       cy="256"
       r="15"
       id="circle69"
       style="fill:#ffffff;fill-opacity:1" />
    <circle
       cx="286"
       cy="256"
       r="15"
       id="circle71"
       style="fill:#ffffff;fill-opacity:1" />
    <path
       d="m512 226c0-7.932-6.175-14.493-14.092-14.972l-21.977-1.332c-5.729-27.146-16.539-53.196-31.721-76.447l13.956-15.817c5.241-5.939 4.96-14.93-.641-20.531l-42.425-42.426c-5.601-5.601-14.591-5.881-20.531-.641l-15.818 13.956c-23.25-15.182-49.3-25.992-76.447-31.721l-1.332-21.977c-.479-7.917-7.04-14.092-14.972-14.092h-60c-7.932 0-14.493 6.175-14.973 14.092l-1.332 21.977c-27.146 5.729-53.196 16.539-76.447 31.721l-15.817-13.957c-5.94-5.24-14.93-4.96-20.531.641l-42.425 42.426c-5.601 5.601-5.882 14.592-.641 20.531l13.957 15.817c-15.183 23.25-25.993 49.3-31.722 76.447l-21.977 1.332c-7.917.48-14.092 7.041-14.092 14.973v60c0 7.932 6.175 14.493 14.092 14.972l21.977 1.332c5.729 27.143 16.54 53.197 31.72 76.447l-13.955 15.816c-5.241 5.939-4.96 14.93.641 20.531l42.425 42.427c5.601 5.601 14.592 5.882 20.531.641l15.817-13.956c23.251 15.182 49.301 25.992 76.447 31.721l1.332 21.977c.48 7.917 7.041 14.092 14.973 14.092h60c7.932 0 14.493-6.175 14.973-14.092l1.332-21.977c27.146-5.729 53.196-16.539 76.447-31.721l15.817 13.956c5.939 5.24 14.93 4.96 20.531-.641l42.425-42.427c5.601-5.601 5.881-14.591.641-20.531l-13.955-15.816c15.181-23.25 25.991-49.303 31.72-76.447l21.977-1.332c7.917-.479 14.092-7.04 14.092-14.972zm-30 45.882-19.616 1.189c-7.046.427-12.842 5.71-13.917 12.688-4.731 30.694-16.96 60.168-35.364 85.236-4.174 5.686-3.823 13.512.844 18.801l12.4 14.054-22.497 22.498-14.055-12.402c-5.29-4.667-13.116-5.018-18.802-.843-25.067 18.404-54.541 30.633-85.235 35.365-6.977 1.075-12.26 6.871-12.688 13.917l-1.188 19.615h-31.764l-1.189-19.616c-.427-7.047-5.71-12.842-12.688-13.917-30.694-4.731-60.168-16.96-85.235-35.365-5.686-4.175-13.513-3.823-18.802.843l-14.056 12.402-22.497-22.498 12.4-14.054c4.667-5.289 5.018-13.115.844-18.801-18.404-25.068-30.632-54.542-35.364-85.236-1.075-6.977-6.871-12.26-13.917-12.688l-19.614-1.188v-31.764l19.616-1.189c7.046-.427 12.842-5.71 13.917-12.688 4.731-30.695 16.96-60.169 35.365-85.235 4.175-5.686 3.824-13.513-.843-18.802l-12.402-14.056 22.497-22.497 14.056 12.402c5.289 4.667 13.116 5.018 18.802.843 25.067-18.405 54.541-30.634 85.235-35.365 6.977-1.075 12.26-6.871 12.688-13.917l1.187-19.614h31.764l1.189 19.616c.427 7.047 5.71 12.842 12.688 13.917 30.695 4.731 60.168 16.96 85.235 35.365 5.686 4.175 13.513 3.824 18.802-.843l14.056-12.402 22.497 22.497-12.402 14.056c-4.667 5.289-5.018 13.116-.843 18.802 18.404 25.067 30.633 54.541 35.365 85.235 1.075 6.977 6.871 12.26 13.917 12.688l19.614 1.187z"
       id="path73"
       style="fill:#ffffff;fill-opacity:1" />
  </g>
</svg>
