<?xml version="1.0" encoding="UTF-8" standalone="no"?>
<svg
   xmlns:dc="http://purl.org/dc/elements/1.1/"
   xmlns:cc="http://creativecommons.org/ns#"
   xmlns:rdf="http://www.w3.org/1999/02/22-rdf-syntax-ns#"
   xmlns:svg="http://www.w3.org/2000/svg"
   xmlns="http://www.w3.org/2000/svg"
   xmlns:sodipodi="http://sodipodi.sourceforge.net/DTD/sodipodi-0.dtd"
   xmlns:inkscape="http://www.inkscape.org/namespaces/inkscape"
   height="511pt"
   viewBox="-2 0 511 511.99943"
   width="511pt"
   version="1.1"
   id="svg18"
   sodipodi:docname="hard-work.svg"
   inkscape:version="1.0.2 (e86c870879, 2021-01-15)">
  <metadata
     id="metadata24">
    <rdf:RDF>
      <cc:Work
         rdf:about="">
        <dc:format>image/svg+xml</dc:format>
        <dc:type
           rdf:resource="http://purl.org/dc/dcmitype/StillImage" />
      </cc:Work>
    </rdf:RDF>
  </metadata>
  <defs
     id="defs22" />
  <sodipodi:namedview
     pagecolor="#ffffff"
     bordercolor="#666666"
     borderopacity="1"
     objecttolerance="10"
     gridtolerance="10"
     guidetolerance="10"
     inkscape:pageopacity="0"
     inkscape:pageshadow="2"
     inkscape:window-width="1297"
     inkscape:window-height="704"
     id="namedview20"
     showgrid="false"
     inkscape:zoom="0.57080537"
     inkscape:cx="499.2216"
     inkscape:cy="378.34708"
     inkscape:window-x="69"
     inkscape:window-y="27"
     inkscape:window-maximized="1"
     inkscape:current-layer="svg18"
     inkscape:document-rotation="0" />
  <path
     d="m311.480469 390.996094c-4.417969-10.484375-14.621094-17.257813-25.996094-17.257813h-28.566406c-7.46875 0-14.765625 3.039063-20.023438 8.339844l-3.054687 3.078125c-1.953125 1.964844-4.632813 2.800781-7.355469 2.28125-2.722656-.515625-4.914063-2.269531-6.007813-4.816406l-32.332031-75.066406c-4.460937-10.359376-14.632812-17.050782-25.910156-17.050782h-51.105469l-46.03125-104.296875c-4.507812-10.21875-14.636718-16.816406-25.804687-16.816406h-28.792969c-5.523438 0-10 4.476563-10 10 0 5.519531 4.476562 10 10 10h28.792969c3.25 0 6.195312 1.917969 7.507812 4.894531l42.628907 96.582032c-14.660157 1.921874-27.3125 11.449218-33.109376 25.375l-17.335937 41.617187c-2.121094 5.097656.289063 10.953125 5.386719 13.074219 1.257812.523437 2.558594.769531 3.84375.769531 3.914062 0 7.632812-2.3125 9.234375-6.15625l17.332031-41.617187c3.398438-8.15625 11.300781-13.425782 20.136719-13.425782h67.316406c3.28125 0 6.242187 1.945313 7.539063 4.960938l32.332031 75.066406c3.710937 8.621094 11.433593 14.808594 20.652343 16.558594 9.222657 1.746094 18.671876-1.1875 25.277344-7.847656l3.054688-3.078126c1.53125-1.539062 3.652344-2.425781 5.828125-2.425781h28.566406c3.3125 0 6.277344 1.972657 7.5625 5.023438l45.128906 107.117187c1.609375 3.820313 5.316407 6.121094 9.21875 6.121094 1.296875 0 2.609375-.253906 3.878907-.789062 5.089843-2.144532 7.476562-8.007813 5.332031-13.097657zm0 0"
     id="path2"
     style="fill:#ffffff;fill-opacity:1" />
  <path
     d="m497.410156 305.796875-14.058594-14.054687c-.171874-.171876-.351562-.339844-.535156-.5l-.984375-.847657c-4.179687-3.609375-10.496093-3.144531-14.105469 1.035157-3.605468 4.179687-3.144531 10.496093 1.039063 14.105468l.707031.605469 13.792969 13.796875c4.808594 4.808594 4.808594 12.625 0 17.433594l-28.53125 28.53125c-4.804687 4.808594-12.625 4.808594-17.4375-.003906l-7.019531-7.003907 21.070312-21.175781c3.898438-3.917969 3.882813-10.246094-.035156-14.144531-3.914062-3.894531-10.246094-3.878907-14.140625.035156l-20.496094 20.601563-165.101562-191.683594 18.316406-18.3125 130.742187 112.628906c4.183594 3.605469 10.5 3.132812 14.101563-1.050781 3.605469-4.183594 3.136719-10.5-1.050781-14.101563l-129.613282-111.660156 102.714844-102.710938c2.726563-2.730468 3.644532-6.785156 2.347656-10.425781-1.292968-3.636719-4.566406-6.203125-8.40625-6.59375-.871093-.089843-21.691406-2.089843-51.925781 5.539063-25.90625 6.535156-63.90625 21.667968-101.5625 56.648437l-4.050781-4.054687c-3.90625-3.902344-10.238281-3.902344-14.144531 0l-32.34375 32.347656c-3.90625 3.902344-3.90625 10.234375 0 14.140625l4.054687 4.054687c-34.984375 37.65625-50.117187 75.65625-56.652344 101.5625-7.625 30.234376-5.625 51.054688-5.539062 51.925782.394531 3.839844 2.960938 7.113281 6.597656 8.40625 1.09375.390625 2.226563.578125 3.351563.578125 2.609375 0 5.164062-1.019531 7.074219-2.929688l101.808593-101.808593 171.175781 198.738281c.164063.1875.332032.371093.511719.550781l14.078125 14.050781c6.300782 6.300781 14.578125 9.449219 22.855469 9.449219s16.558594-3.148438 22.859375-9.449219l28.53125-28.535156c12.605469-12.605469 12.605469-33.113281.003906-45.71875zm-164.636718-280.332031c8.105468-2.085938 15.457031-3.398438 21.789062-4.210938l-84.277344 84.28125-28.898437-28.894531c34.066406-31.460937 68.144531-45.1875 91.386719-51.175781zm-116.660157 54.183594 3.90625 3.90625c.007813.007812.011719.011718.015625.015624l36.105469 36.105469-18.199219 18.203125-36.109375-36.105468-3.917969-3.921876zm-21.214843 43.476562 28.898437 28.898438-84.273437 84.273437c3.378906-26.113281 15.320312-69.839844 55.375-113.171875zm0 0"
     id="path4"
     style="fill:#ffffff;fill-opacity:1" />
  <path
     d="m81.695312 171.285156c1.921876 2.566406 4.910157 4.003906 8 4.003906 1.015626 0 2.039063-.15625 3.042969-.476562 4.054688-1.292969 6.847657-5.015625 6.953125-9.269531l2-78.679688c.082032-3.21875-1.386718-6.277343-3.953125-8.222656-2.5625-1.945313-5.90625-2.535156-8.980469-1.589844l-49.570312 15.234375c-3.113281.957032-5.566406 3.371094-6.574219 6.464844-1.003906 3.097656-.441406 6.488281 1.511719 9.09375zm-.351562-71.03125-.914062 36.007813-21.773438-29.035157zm0 0"
     id="path6"
     style="fill:#ffffff;fill-opacity:1" />
  <path
     d="m265.949219 223.464844c-1.046875-3.027344-3.480469-5.371094-6.550781-6.300782-3.066407-.929687-6.394532-.332031-8.945313 1.605469l-55.867187 42.40625c-3.421876 2.597657-4.800782 7.085938-3.433594 11.15625 1.371094 4.066407 5.1875 6.808594 9.480468 6.808594h70.535157c3.234375 0 6.269531-1.5625 8.144531-4.199219 1.878906-2.632812 2.363281-6.011718 1.304688-9.066406zm-35.605469 35.675781 21.214844-16.101563 5.566406 16.101563zm0 0"
     id="path8"
     style="fill:#ffffff;fill-opacity:1" />
  <path
     d="m45.359375 402.457031c-1.609375-3.863281-5.578125-6.386719-9.769531-6.160156-4.164063.226563-7.816406 3.097656-9.03125 7.078125-1.210938 3.976562.246094 8.472656 3.605468 10.941406 3.277344 2.402344 7.769532 2.597656 11.230469.457032 4.101563-2.535157 5.820313-7.863282 3.964844-12.316407zm0 0"
     id="path10"
     style="fill:#ffffff;fill-opacity:1" />
  <path
     d="m432.597656 272.96875c1.613282 3.863281 5.550782 6.351562 9.730469 6.15625 4.171875-.195312 7.855469-3.085938 9.070313-7.078125 1.21875-4.007813-.261719-8.496094-3.65625-10.96875-3.265626-2.375-7.746094-2.550781-11.179688-.425781-4.101562 2.535156-5.824219 7.855468-3.964844 12.316406zm0 0"
     id="path12"
     style="fill:#ffffff;fill-opacity:1" />
  <path
     d="m217.730469 308.589844c-1.921875 5.175781.714843 10.933594 5.890625 12.855468l51.1875 19.027344c1.148437.429688 2.324218.632813 3.484375.632813 4.058593 0 7.875-2.492188 9.375-6.519531 1.921875-5.179688-.714844-10.933594-5.890625-12.859376l-51.1875-19.023437c-5.179688-1.929687-10.933594.710937-12.859375 5.886719zm0 0"
     id="path14"
     style="fill:#ffffff;fill-opacity:1" />
  <path
     d="m130.792969 116.804688c.710937.152343 1.414062.226562 2.109375.226562 4.613281 0 8.761718-3.210938 9.769531-7.902344l9.0625-42.191406c1.160156-5.398438-2.277344-10.714844-7.679687-11.875-5.402344-1.15625-10.714844 2.277344-11.875 7.675781l-9.0625 42.191407c-1.160157 5.398437 2.277343 10.714843 7.675781 11.875zm0 0"
     id="path16"
     style="fill:#ffffff;fill-opacity:1" />
</svg>
