<?xml version="1.0" encoding="UTF-8" standalone="no"?>
<svg
   xmlns:dc="http://purl.org/dc/elements/1.1/"
   xmlns:cc="http://creativecommons.org/ns#"
   xmlns:rdf="http://www.w3.org/1999/02/22-rdf-syntax-ns#"
   xmlns:svg="http://www.w3.org/2000/svg"
   xmlns="http://www.w3.org/2000/svg"
   xmlns:sodipodi="http://sodipodi.sourceforge.net/DTD/sodipodi-0.dtd"
   xmlns:inkscape="http://www.inkscape.org/namespaces/inkscape"
   id="Capa_1"
   enable-background="new 0 0 512 512"
   height="512"
   viewBox="0 0 512 512"
   width="512"
   version="1.1"
   sodipodi:docname="reading.svg"
   inkscape:version="1.0.2 (e86c870879, 2021-01-15)">
  <metadata
     id="metadata21">
    <rdf:RDF>
      <cc:Work
         rdf:about="">
        <dc:format>image/svg+xml</dc:format>
        <dc:type
           rdf:resource="http://purl.org/dc/dcmitype/StillImage" />
      </cc:Work>
    </rdf:RDF>
  </metadata>
  <defs
     id="defs19" />
  <sodipodi:namedview
     pagecolor="#ffffff"
     bordercolor="#666666"
     borderopacity="1"
     objecttolerance="10"
     gridtolerance="10"
     guidetolerance="10"
     inkscape:pageopacity="0"
     inkscape:pageshadow="2"
     inkscape:window-width="1297"
     inkscape:window-height="704"
     id="namedview17"
     showgrid="false"
     inkscape:zoom="0.7595874"
     inkscape:cx="311.19145"
     inkscape:cy="254.11067"
     inkscape:window-x="69"
     inkscape:window-y="27"
     inkscape:window-maximized="1"
     inkscape:current-layer="Capa_1"
     inkscape:document-rotation="0" />
  <g
     id="g14"
     style="fill:#ffffff;fill-opacity:1">
    <circle
       cx="256"
       cy="85"
       r="85"
       id="circle2"
       style="fill:#ffffff;fill-opacity:1" />
    <path
       d="m318.459 181.515c-17.997 11.687-39.448 18.485-62.459 18.485s-44.462-6.798-62.459-18.485c-19.895 7.603-38.341 18.82-54.38 33.216l116.839 43.815 116.839-43.815c-16.039-14.396-34.485-25.614-54.38-33.216z"
       id="path4"
       style="fill:#ffffff;fill-opacity:1" />
    <path
       d="m436 310h-10c-8.284 0-15 6.716-15 15v40c0 8.284 6.716 15 15 15h10c19.33 0 35-15.67 35-35 0-19.33-15.67-35-35-35z"
       id="path6"
       style="fill:#ffffff;fill-opacity:1" />
    <path
       d="m87.456 234.276c-4.044 2.803-6.456 7.409-6.456 12.329v33.395h5c24.813 0 45 20.187 45 45v40c0 24.813-20.187 45-45 45h-5v31.605c0 6.253 3.879 11.85 9.733 14.045l150.267 56.35v-227.04l-139.733-52.4c-4.607-1.729-9.768-1.088-13.811 1.716z"
       id="path8"
       style="fill:#ffffff;fill-opacity:1" />
    <path
       d="m381 365v-40c0-24.813 20.187-45 45-45h5v-33.395c0-4.92-2.412-9.526-6.456-12.329-4.044-2.804-9.206-3.445-13.811-1.716l-139.733 52.4v227.04l150.267-56.35c5.854-2.195 9.733-7.792 9.733-14.045v-31.605h-5c-24.813 0-45-20.187-45-45z"
       id="path10"
       style="fill:#ffffff;fill-opacity:1" />
    <path
       d="m101 365v-40c0-8.284-6.716-15-15-15h-10c-19.33 0-35 15.67-35 35 0 19.33 15.67 35 35 35h10c8.284 0 15-6.716 15-15z"
       id="path12"
       style="fill:#ffffff;fill-opacity:1" />
  </g>
</svg>
